<?xml version="1.0" encoding="utf-8" standalone="no"?>
<!DOCTYPE svg PUBLIC "-//W3C//DTD SVG 1.1//EN"
  "http://www.w3.org/Graphics/SVG/1.1/DTD/svg11.dtd">
<!-- Created with matplotlib (http://matplotlib.org/) -->
<svg height="345pt" version="1.1" viewBox="0 0 460 345" width="460pt" xmlns="http://www.w3.org/2000/svg" xmlns:xlink="http://www.w3.org/1999/xlink">
 <defs>
  <style type="text/css">
*{stroke-linecap:butt;stroke-linejoin:round;}
  </style>
 </defs>
 <g id="figure_1">
  <g id="patch_1">
   <path d="M 0 345.6 
L 460.8 345.6 
L 460.8 0 
L 0 0 
z
" style="fill:#ffffff;"/>
  </g>
  <g id="axes_1">
   <g id="patch_2">
    <path d="M 57.6 307.584 
L 414.72 307.584 
L 414.72 41.472 
L 57.6 41.472 
z
" style="fill:#ffffff;"/>
   </g>
   <g id="patch_3">
    <path clip-path="url(#p249c2e5294)" d="M 56.484 307.584 
L 58.716 307.584 
L 58.716 307.584 
L 56.484 307.584 
z
" style="fill:#1f77b4;"/>
   </g>
   <g id="patch_4">
    <path clip-path="url(#p249c2e5294)" d="M 59.274 307.584 
L 61.506 307.584 
L 61.506 307.584 
L 59.274 307.584 
z
" style="fill:#1f77b4;"/>
   </g>
   <g id="patch_5">
    <path clip-path="url(#p249c2e5294)" d="M 62.064 307.584 
L 64.296 307.584 
L 64.296 307.584 
L 62.064 307.584 
z
" style="fill:#1f77b4;"/>
   </g>
   <g id="patch_6">
    <path clip-path="url(#p249c2e5294)" d="M 64.854 307.584 
L 67.086 307.584 
L 67.086 307.584 
L 64.854 307.584 
z
" style="fill:#1f77b4;"/>
   </g>
   <g id="patch_7">
    <path clip-path="url(#p249c2e5294)" d="M 67.644 307.584 
L 69.876 307.584 
L 69.876 307.584 
L 67.644 307.584 
z
" style="fill:#1f77b4;"/>
   </g>
   <g id="patch_8">
    <path clip-path="url(#p249c2e5294)" d="M 70.434 307.584 
L 72.666 307.584 
L 72.666 307.584 
L 70.434 307.584 
z
" style="fill:#1f77b4;"/>
   </g>
   <g id="patch_9">
    <path clip-path="url(#p249c2e5294)" d="M 73.224 307.584 
L 75.456 307.584 
L 75.456 307.584 
L 73.224 307.584 
z
" style="fill:#1f77b4;"/>
   </g>
   <g id="patch_10">
    <path clip-path="url(#p249c2e5294)" d="M 76.014 307.584 
L 78.246 307.584 
L 78.246 307.584 
L 76.014 307.584 
z
" style="fill:#1f77b4;"/>
   </g>
   <g id="patch_11">
    <path clip-path="url(#p249c2e5294)" d="M 78.804 307.584 
L 81.036 307.584 
L 81.036 307.584 
L 78.804 307.584 
z
" style="fill:#1f77b4;"/>
   </g>
   <g id="patch_12">
    <path clip-path="url(#p249c2e5294)" d="M 81.594 307.584 
L 83.826 307.584 
L 83.826 307.584 
L 81.594 307.584 
z
" style="fill:#1f77b4;"/>
   </g>
   <g id="patch_13">
    <path clip-path="url(#p249c2e5294)" d="M 84.384 307.584 
L 86.616 307.584 
L 86.616 307.584 
L 84.384 307.584 
z
" style="fill:#1f77b4;"/>
   </g>
   <g id="patch_14">
    <path clip-path="url(#p249c2e5294)" d="M 87.174 307.584 
L 89.406 307.584 
L 89.406 307.584 
L 87.174 307.584 
z
" style="fill:#1f77b4;"/>
   </g>
   <g id="patch_15">
    <path clip-path="url(#p249c2e5294)" d="M 89.964 307.584 
L 92.196 307.584 
L 92.196 307.584 
L 89.964 307.584 
z
" style="fill:#1f77b4;"/>
   </g>
   <g id="patch_16">
    <path clip-path="url(#p249c2e5294)" d="M 92.754 307.584 
L 94.986 307.584 
L 94.986 307.584 
L 92.754 307.584 
z
" style="fill:#1f77b4;"/>
   </g>
   <g id="patch_17">
    <path clip-path="url(#p249c2e5294)" d="M 95.544 307.584 
L 97.776 307.584 
L 97.776 307.584 
L 95.544 307.584 
z
" style="fill:#1f77b4;"/>
   </g>
   <g id="patch_18">
    <path clip-path="url(#p249c2e5294)" d="M 98.334 307.584 
L 100.566 307.584 
L 100.566 307.584 
L 98.334 307.584 
z
" style="fill:#1f77b4;"/>
   </g>
   <g id="patch_19">
    <path clip-path="url(#p249c2e5294)" d="M 101.124 307.584 
L 103.356 307.584 
L 103.356 307.584 
L 101.124 307.584 
z
" style="fill:#1f77b4;"/>
   </g>
   <g id="patch_20">
    <path clip-path="url(#p249c2e5294)" d="M 103.914 307.584 
L 106.146 307.584 
L 106.146 307.584 
L 103.914 307.584 
z
" style="fill:#1f77b4;"/>
   </g>
   <g id="patch_21">
    <path clip-path="url(#p249c2e5294)" d="M 106.704 307.584 
L 108.936 307.584 
L 108.936 307.584 
L 106.704 307.584 
z
" style="fill:#1f77b4;"/>
   </g>
   <g id="patch_22">
    <path clip-path="url(#p249c2e5294)" d="M 109.494 307.584 
L 111.726 307.584 
L 111.726 307.584 
L 109.494 307.584 
z
" style="fill:#1f77b4;"/>
   </g>
   <g id="patch_23">
    <path clip-path="url(#p249c2e5294)" d="M 112.284 307.584 
L 114.516 307.584 
L 114.516 307.584 
L 112.284 307.584 
z
" style="fill:#1f77b4;"/>
   </g>
   <g id="patch_24">
    <path clip-path="url(#p249c2e5294)" d="M 115.074 307.584 
L 117.306 307.584 
L 117.306 307.584 
L 115.074 307.584 
z
" style="fill:#1f77b4;"/>
   </g>
   <g id="patch_25">
    <path clip-path="url(#p249c2e5294)" d="M 117.864 307.584 
L 120.096 307.584 
L 120.096 307.584 
L 117.864 307.584 
z
" style="fill:#1f77b4;"/>
   </g>
   <g id="patch_26">
    <path clip-path="url(#p249c2e5294)" d="M 120.654 307.584 
L 122.886 307.584 
L 122.886 307.584 
L 120.654 307.584 
z
" style="fill:#1f77b4;"/>
   </g>
   <g id="patch_27">
    <path clip-path="url(#p249c2e5294)" d="M 123.444 307.584 
L 125.676 307.584 
L 125.676 307.584 
L 123.444 307.584 
z
" style="fill:#1f77b4;"/>
   </g>
   <g id="patch_28">
    <path clip-path="url(#p249c2e5294)" d="M 126.234 307.584 
L 128.466 307.584 
L 128.466 307.584 
L 126.234 307.584 
z
" style="fill:#1f77b4;"/>
   </g>
   <g id="patch_29">
    <path clip-path="url(#p249c2e5294)" d="M 129.024 307.584 
L 131.256 307.584 
L 131.256 307.584 
L 129.024 307.584 
z
" style="fill:#1f77b4;"/>
   </g>
   <g id="patch_30">
    <path clip-path="url(#p249c2e5294)" d="M 131.814 307.584 
L 134.046 307.584 
L 134.046 307.584 
L 131.814 307.584 
z
" style="fill:#1f77b4;"/>
   </g>
   <g id="patch_31">
    <path clip-path="url(#p249c2e5294)" d="M 134.604 307.584 
L 136.836 307.584 
L 136.836 307.584 
L 134.604 307.584 
z
" style="fill:#1f77b4;"/>
   </g>
   <g id="patch_32">
    <path clip-path="url(#p249c2e5294)" d="M 137.394 307.584 
L 139.626 307.584 
L 139.626 307.584 
L 137.394 307.584 
z
" style="fill:#1f77b4;"/>
   </g>
   <g id="patch_33">
    <path clip-path="url(#p249c2e5294)" d="M 140.184 307.584 
L 142.416 307.584 
L 142.416 307.584 
L 140.184 307.584 
z
" style="fill:#1f77b4;"/>
   </g>
   <g id="patch_34">
    <path clip-path="url(#p249c2e5294)" d="M 142.974 307.584 
L 145.206 307.584 
L 145.206 307.584 
L 142.974 307.584 
z
" style="fill:#1f77b4;"/>
   </g>
   <g id="patch_35">
    <path clip-path="url(#p249c2e5294)" d="M 145.764 307.584 
L 147.996 307.584 
L 147.996 307.584 
L 145.764 307.584 
z
" style="fill:#1f77b4;"/>
   </g>
   <g id="patch_36">
    <path clip-path="url(#p249c2e5294)" d="M 148.554 307.584 
L 150.786 307.584 
L 150.786 307.584 
L 148.554 307.584 
z
" style="fill:#1f77b4;"/>
   </g>
   <g id="patch_37">
    <path clip-path="url(#p249c2e5294)" d="M 151.344 307.584 
L 153.576 307.584 
L 153.576 307.584 
L 151.344 307.584 
z
" style="fill:#1f77b4;"/>
   </g>
   <g id="patch_38">
    <path clip-path="url(#p249c2e5294)" d="M 154.134 307.584 
L 156.366 307.584 
L 156.366 307.584 
L 154.134 307.584 
z
" style="fill:#1f77b4;"/>
   </g>
   <g id="patch_39">
    <path clip-path="url(#p249c2e5294)" d="M 156.924 307.584 
L 159.156 307.584 
L 159.156 307.584 
L 156.924 307.584 
z
" style="fill:#1f77b4;"/>
   </g>
   <g id="patch_40">
    <path clip-path="url(#p249c2e5294)" d="M 159.714 307.584 
L 161.946 307.584 
L 161.946 307.487534 
L 159.714 307.487534 
z
" style="fill:#1f77b4;"/>
   </g>
   <g id="patch_41">
    <path clip-path="url(#p249c2e5294)" d="M 162.504 307.584 
L 164.736 307.584 
L 164.736 307.382938 
L 162.504 307.382938 
z
" style="fill:#1f77b4;"/>
   </g>
   <g id="patch_42">
    <path clip-path="url(#p249c2e5294)" d="M 165.294 307.584 
L 167.526 307.584 
L 167.526 306.844061 
L 165.294 306.844061 
z
" style="fill:#1f77b4;"/>
   </g>
   <g id="patch_43">
    <path clip-path="url(#p249c2e5294)" d="M 168.084 307.584 
L 170.316 307.584 
L 170.316 306.991531 
L 168.084 306.991531 
z
" style="fill:#1f77b4;"/>
   </g>
   <g id="patch_44">
    <path clip-path="url(#p249c2e5294)" d="M 170.874 307.584 
L 173.106 307.584 
L 173.106 305.337941 
L 170.874 305.337941 
z
" style="fill:#1f77b4;"/>
   </g>
   <g id="patch_45">
    <path clip-path="url(#p249c2e5294)" d="M 173.664 307.584 
L 175.896 307.584 
L 175.896 301.738776 
L 173.664 301.738776 
z
" style="fill:#1f77b4;"/>
   </g>
   <g id="patch_46">
    <path clip-path="url(#p249c2e5294)" d="M 176.454 307.584 
L 178.686 307.584 
L 178.686 297.897523 
L 176.454 297.897523 
z
" style="fill:#1f77b4;"/>
   </g>
   <g id="patch_47">
    <path clip-path="url(#p249c2e5294)" d="M 179.244 307.584 
L 181.476 307.584 
L 181.476 295.630397 
L 179.244 295.630397 
z
" style="fill:#1f77b4;"/>
   </g>
   <g id="patch_48">
    <path clip-path="url(#p249c2e5294)" d="M 182.034 307.584 
L 184.266 307.584 
L 184.266 294.264725 
L 182.034 294.264725 
z
" style="fill:#1f77b4;"/>
   </g>
   <g id="patch_49">
    <path clip-path="url(#p249c2e5294)" d="M 184.824 307.584 
L 187.056 307.584 
L 187.056 222.255187 
L 184.824 222.255187 
z
" style="fill:#1f77b4;"/>
   </g>
   <g id="patch_50">
    <path clip-path="url(#p249c2e5294)" d="M 187.614 307.584 
L 189.846 307.584 
L 189.846 302.660928 
L 187.614 302.660928 
z
" style="fill:#1f77b4;"/>
   </g>
   <g id="patch_51">
    <path clip-path="url(#p249c2e5294)" d="M 190.404 307.584 
L 192.636 307.584 
L 192.636 284.496566 
L 190.404 284.496566 
z
" style="fill:#1f77b4;"/>
   </g>
   <g id="patch_52">
    <path clip-path="url(#p249c2e5294)" d="M 193.194 307.584 
L 195.426 307.584 
L 195.426 298.47299 
L 193.194 298.47299 
z
" style="fill:#1f77b4;"/>
   </g>
   <g id="patch_53">
    <path clip-path="url(#p249c2e5294)" d="M 195.984 307.584 
L 198.216 307.584 
L 198.216 293.990112 
L 195.984 293.990112 
z
" style="fill:#1f77b4;"/>
   </g>
   <g id="patch_54">
    <path clip-path="url(#p249c2e5294)" d="M 198.774 307.584 
L 201.006 307.584 
L 201.006 287.771962 
L 198.774 287.771962 
z
" style="fill:#1f77b4;"/>
   </g>
   <g id="patch_55">
    <path clip-path="url(#p249c2e5294)" d="M 201.564 307.584 
L 203.796 307.584 
L 203.796 272.413234 
L 201.564 272.413234 
z
" style="fill:#1f77b4;"/>
   </g>
   <g id="patch_56">
    <path clip-path="url(#p249c2e5294)" d="M 204.354 307.584 
L 206.586 307.584 
L 206.586 269.717002 
L 204.354 269.717002 
z
" style="fill:#1f77b4;"/>
   </g>
   <g id="patch_57">
    <path clip-path="url(#p249c2e5294)" d="M 207.144 307.584 
L 209.376 307.584 
L 209.376 259.982477 
L 207.144 259.982477 
z
" style="fill:#1f77b4;"/>
   </g>
   <g id="patch_58">
    <path clip-path="url(#p249c2e5294)" d="M 209.934 307.584 
L 212.166 307.584 
L 212.166 217.747546 
L 209.934 217.747546 
z
" style="fill:#1f77b4;"/>
   </g>
   <g id="patch_59">
    <path clip-path="url(#p249c2e5294)" d="M 212.724 307.584 
L 214.956 307.584 
L 214.956 228.106694 
L 212.724 228.106694 
z
" style="fill:#1f77b4;"/>
   </g>
   <g id="patch_60">
    <path clip-path="url(#p249c2e5294)" d="M 215.514 307.584 
L 217.746 307.584 
L 217.746 206.515402 
L 215.514 206.515402 
z
" style="fill:#1f77b4;"/>
   </g>
   <g id="patch_61">
    <path clip-path="url(#p249c2e5294)" d="M 218.304 307.584 
L 220.536 307.584 
L 220.536 184.450651 
L 218.304 184.450651 
z
" style="fill:#1f77b4;"/>
   </g>
   <g id="patch_62">
    <path clip-path="url(#p249c2e5294)" d="M 221.094 307.584 
L 223.326 307.584 
L 223.326 158.384242 
L 221.094 158.384242 
z
" style="fill:#1f77b4;"/>
   </g>
   <g id="patch_63">
    <path clip-path="url(#p249c2e5294)" d="M 223.884 307.584 
L 226.116 307.584 
L 226.116 139.349842 
L 223.884 139.349842 
z
" style="fill:#1f77b4;"/>
   </g>
   <g id="patch_64">
    <path clip-path="url(#p249c2e5294)" d="M 226.674 307.584 
L 228.906 307.584 
L 228.906 120.627754 
L 226.674 120.627754 
z
" style="fill:#1f77b4;"/>
   </g>
   <g id="patch_65">
    <path clip-path="url(#p249c2e5294)" d="M 229.464 307.584 
L 231.696 307.584 
L 231.696 106.202266 
L 229.464 106.202266 
z
" style="fill:#1f77b4;"/>
   </g>
   <g id="patch_66">
    <path clip-path="url(#p249c2e5294)" d="M 232.254 307.584 
L 234.486 307.584 
L 234.486 96.435216 
L 232.254 96.435216 
z
" style="fill:#1f77b4;"/>
   </g>
   <g id="patch_67">
    <path clip-path="url(#p249c2e5294)" d="M 235.044 307.584 
L 237.276 307.584 
L 237.276 83.465582 
L 235.044 83.465582 
z
" style="fill:#1f77b4;"/>
   </g>
   <g id="patch_68">
    <path clip-path="url(#p249c2e5294)" d="M 237.834 307.584 
L 240.066 307.584 
L 240.066 95.314589 
L 237.834 95.314589 
z
" style="fill:#1f77b4;"/>
   </g>
   <g id="patch_69">
    <path clip-path="url(#p249c2e5294)" d="M 240.624 307.584 
L 242.856 307.584 
L 242.856 91.964904 
L 240.624 91.964904 
z
" style="fill:#1f77b4;"/>
   </g>
   <g id="patch_70">
    <path clip-path="url(#p249c2e5294)" d="M 243.414 307.584 
L 245.646 307.584 
L 245.646 104.769696 
L 243.414 104.769696 
z
" style="fill:#1f77b4;"/>
   </g>
   <g id="patch_71">
    <path clip-path="url(#p249c2e5294)" d="M 246.204 307.584 
L 248.436 307.584 
L 248.436 138.730022 
L 246.204 138.730022 
z
" style="fill:#1f77b4;"/>
   </g>
   <g id="patch_72">
    <path clip-path="url(#p249c2e5294)" d="M 248.994 307.584 
L 251.226 307.584 
L 251.226 159.880752 
L 248.994 159.880752 
z
" style="fill:#1f77b4;"/>
   </g>
   <g id="patch_73">
    <path clip-path="url(#p249c2e5294)" d="M 251.784 307.584 
L 254.016 307.584 
L 254.016 184.554139 
L 251.784 184.554139 
z
" style="fill:#1f77b4;"/>
   </g>
   <g id="patch_74">
    <path clip-path="url(#p249c2e5294)" d="M 254.574 307.584 
L 256.806 307.584 
L 256.806 206.216765 
L 254.574 206.216765 
z
" style="fill:#1f77b4;"/>
   </g>
   <g id="patch_75">
    <path clip-path="url(#p249c2e5294)" d="M 257.364 307.584 
L 259.596 307.584 
L 259.596 220.599749 
L 257.364 220.599749 
z
" style="fill:#1f77b4;"/>
   </g>
   <g id="patch_76">
    <path clip-path="url(#p249c2e5294)" d="M 260.154 307.584 
L 262.386 307.584 
L 262.386 246.280296 
L 260.154 246.280296 
z
" style="fill:#1f77b4;"/>
   </g>
   <g id="patch_77">
    <path clip-path="url(#p249c2e5294)" d="M 262.944 307.584 
L 265.176 307.584 
L 265.176 262.158682 
L 262.944 262.158682 
z
" style="fill:#1f77b4;"/>
   </g>
   <g id="patch_78">
    <path clip-path="url(#p249c2e5294)" d="M 265.734 307.584 
L 267.966 307.584 
L 267.966 268.27704 
L 265.734 268.27704 
z
" style="fill:#1f77b4;"/>
   </g>
   <g id="patch_79">
    <path clip-path="url(#p249c2e5294)" d="M 268.524 307.584 
L 270.756 307.584 
L 270.756 284.703912 
L 268.524 284.703912 
z
" style="fill:#1f77b4;"/>
   </g>
   <g id="patch_80">
    <path clip-path="url(#p249c2e5294)" d="M 271.314 307.584 
L 273.546 307.584 
L 273.546 292.152091 
L 271.314 292.152091 
z
" style="fill:#1f77b4;"/>
   </g>
   <g id="patch_81">
    <path clip-path="url(#p249c2e5294)" d="M 274.104 307.584 
L 276.336 307.584 
L 276.336 296.254651 
L 274.104 296.254651 
z
" style="fill:#1f77b4;"/>
   </g>
   <g id="patch_82">
    <path clip-path="url(#p249c2e5294)" d="M 276.894 307.584 
L 279.126 307.584 
L 279.126 300.349819 
L 276.894 300.349819 
z
" style="fill:#1f77b4;"/>
   </g>
   <g id="patch_83">
    <path clip-path="url(#p249c2e5294)" d="M 279.684 307.584 
L 281.916 307.584 
L 281.916 303.635933 
L 279.684 303.635933 
z
" style="fill:#1f77b4;"/>
   </g>
   <g id="patch_84">
    <path clip-path="url(#p249c2e5294)" d="M 282.474 307.584 
L 284.706 307.584 
L 284.706 305.238149 
L 282.474 305.238149 
z
" style="fill:#1f77b4;"/>
   </g>
   <g id="patch_85">
    <path clip-path="url(#p249c2e5294)" d="M 285.264 307.584 
L 287.496 307.584 
L 287.496 306.279682 
L 285.264 306.279682 
z
" style="fill:#1f77b4;"/>
   </g>
   <g id="patch_86">
    <path clip-path="url(#p249c2e5294)" d="M 288.054 307.584 
L 290.286 307.584 
L 290.286 306.839995 
L 288.054 306.839995 
z
" style="fill:#1f77b4;"/>
   </g>
   <g id="patch_87">
    <path clip-path="url(#p249c2e5294)" d="M 290.844 307.584 
L 293.076 307.584 
L 293.076 307.20479 
L 290.844 307.20479 
z
" style="fill:#1f77b4;"/>
   </g>
   <g id="patch_88">
    <path clip-path="url(#p249c2e5294)" d="M 293.634 307.584 
L 295.866 307.584 
L 295.866 307.379981 
L 293.634 307.379981 
z
" style="fill:#1f77b4;"/>
   </g>
   <g id="patch_89">
    <path clip-path="url(#p249c2e5294)" d="M 296.424 307.584 
L 298.656 307.584 
L 298.656 307.476816 
L 296.424 307.476816 
z
" style="fill:#1f77b4;"/>
   </g>
   <g id="patch_90">
    <path clip-path="url(#p249c2e5294)" d="M 299.214 307.584 
L 301.446 307.584 
L 301.446 307.536322 
L 299.214 307.536322 
z
" style="fill:#1f77b4;"/>
   </g>
   <g id="patch_91">
    <path clip-path="url(#p249c2e5294)" d="M 302.004 307.584 
L 304.236 307.584 
L 304.236 307.56515 
L 302.004 307.56515 
z
" style="fill:#1f77b4;"/>
   </g>
   <g id="patch_92">
    <path clip-path="url(#p249c2e5294)" d="M 304.794 307.584 
L 307.026 307.584 
L 307.026 307.573651 
L 304.794 307.573651 
z
" style="fill:#1f77b4;"/>
   </g>
   <g id="patch_93">
    <path clip-path="url(#p249c2e5294)" d="M 307.584 307.584 
L 309.816 307.584 
L 309.816 307.581043 
L 307.584 307.581043 
z
" style="fill:#1f77b4;"/>
   </g>
   <g id="patch_94">
    <path clip-path="url(#p249c2e5294)" d="M 310.374 307.584 
L 312.606 307.584 
L 312.606 307.582152 
L 310.374 307.582152 
z
" style="fill:#1f77b4;"/>
   </g>
   <g id="patch_95">
    <path clip-path="url(#p249c2e5294)" d="M 313.164 307.584 
L 315.396 307.584 
L 315.396 307.582891 
L 313.164 307.582891 
z
" style="fill:#1f77b4;"/>
   </g>
   <g id="patch_96">
    <path clip-path="url(#p249c2e5294)" d="M 315.954 307.584 
L 318.186 307.584 
L 318.186 307.583261 
L 315.954 307.583261 
z
" style="fill:#1f77b4;"/>
   </g>
   <g id="patch_97">
    <path clip-path="url(#p249c2e5294)" d="M 318.744 307.584 
L 320.976 307.584 
L 320.976 307.584 
L 318.744 307.584 
z
" style="fill:#1f77b4;"/>
   </g>
   <g id="patch_98">
    <path clip-path="url(#p249c2e5294)" d="M 321.534 307.584 
L 323.766 307.584 
L 323.766 307.584 
L 321.534 307.584 
z
" style="fill:#1f77b4;"/>
   </g>
   <g id="patch_99">
    <path clip-path="url(#p249c2e5294)" d="M 324.324 307.584 
L 326.556 307.584 
L 326.556 307.584 
L 324.324 307.584 
z
" style="fill:#1f77b4;"/>
   </g>
   <g id="patch_100">
    <path clip-path="url(#p249c2e5294)" d="M 327.114 307.584 
L 329.346 307.584 
L 329.346 307.584 
L 327.114 307.584 
z
" style="fill:#1f77b4;"/>
   </g>
   <g id="patch_101">
    <path clip-path="url(#p249c2e5294)" d="M 329.904 307.584 
L 332.136 307.584 
L 332.136 307.584 
L 329.904 307.584 
z
" style="fill:#1f77b4;"/>
   </g>
   <g id="patch_102">
    <path clip-path="url(#p249c2e5294)" d="M 332.694 307.584 
L 334.926 307.584 
L 334.926 307.584 
L 332.694 307.584 
z
" style="fill:#1f77b4;"/>
   </g>
   <g id="patch_103">
    <path clip-path="url(#p249c2e5294)" d="M 335.484 307.584 
L 337.716 307.584 
L 337.716 307.584 
L 335.484 307.584 
z
" style="fill:#1f77b4;"/>
   </g>
   <g id="patch_104">
    <path clip-path="url(#p249c2e5294)" d="M 338.274 307.584 
L 340.506 307.584 
L 340.506 307.584 
L 338.274 307.584 
z
" style="fill:#1f77b4;"/>
   </g>
   <g id="patch_105">
    <path clip-path="url(#p249c2e5294)" d="M 341.064 307.584 
L 343.296 307.584 
L 343.296 307.584 
L 341.064 307.584 
z
" style="fill:#1f77b4;"/>
   </g>
   <g id="patch_106">
    <path clip-path="url(#p249c2e5294)" d="M 343.854 307.584 
L 346.086 307.584 
L 346.086 307.584 
L 343.854 307.584 
z
" style="fill:#1f77b4;"/>
   </g>
   <g id="patch_107">
    <path clip-path="url(#p249c2e5294)" d="M 346.644 307.584 
L 348.876 307.584 
L 348.876 307.584 
L 346.644 307.584 
z
" style="fill:#1f77b4;"/>
   </g>
   <g id="patch_108">
    <path clip-path="url(#p249c2e5294)" d="M 349.434 307.584 
L 351.666 307.584 
L 351.666 307.584 
L 349.434 307.584 
z
" style="fill:#1f77b4;"/>
   </g>
   <g id="patch_109">
    <path clip-path="url(#p249c2e5294)" d="M 352.224 307.584 
L 354.456 307.584 
L 354.456 307.584 
L 352.224 307.584 
z
" style="fill:#1f77b4;"/>
   </g>
   <g id="patch_110">
    <path clip-path="url(#p249c2e5294)" d="M 355.014 307.584 
L 357.246 307.584 
L 357.246 307.584 
L 355.014 307.584 
z
" style="fill:#1f77b4;"/>
   </g>
   <g id="patch_111">
    <path clip-path="url(#p249c2e5294)" d="M 357.804 307.584 
L 360.036 307.584 
L 360.036 307.584 
L 357.804 307.584 
z
" style="fill:#1f77b4;"/>
   </g>
   <g id="patch_112">
    <path clip-path="url(#p249c2e5294)" d="M 360.594 307.584 
L 362.826 307.584 
L 362.826 307.584 
L 360.594 307.584 
z
" style="fill:#1f77b4;"/>
   </g>
   <g id="patch_113">
    <path clip-path="url(#p249c2e5294)" d="M 363.384 307.584 
L 365.616 307.584 
L 365.616 307.584 
L 363.384 307.584 
z
" style="fill:#1f77b4;"/>
   </g>
   <g id="patch_114">
    <path clip-path="url(#p249c2e5294)" d="M 366.174 307.584 
L 368.406 307.584 
L 368.406 307.584 
L 366.174 307.584 
z
" style="fill:#1f77b4;"/>
   </g>
   <g id="patch_115">
    <path clip-path="url(#p249c2e5294)" d="M 368.964 307.584 
L 371.196 307.584 
L 371.196 307.584 
L 368.964 307.584 
z
" style="fill:#1f77b4;"/>
   </g>
   <g id="patch_116">
    <path clip-path="url(#p249c2e5294)" d="M 371.754 307.584 
L 373.986 307.584 
L 373.986 307.584 
L 371.754 307.584 
z
" style="fill:#1f77b4;"/>
   </g>
   <g id="patch_117">
    <path clip-path="url(#p249c2e5294)" d="M 374.544 307.584 
L 376.776 307.584 
L 376.776 307.584 
L 374.544 307.584 
z
" style="fill:#1f77b4;"/>
   </g>
   <g id="patch_118">
    <path clip-path="url(#p249c2e5294)" d="M 377.334 307.584 
L 379.566 307.584 
L 379.566 307.584 
L 377.334 307.584 
z
" style="fill:#1f77b4;"/>
   </g>
   <g id="patch_119">
    <path clip-path="url(#p249c2e5294)" d="M 380.124 307.584 
L 382.356 307.584 
L 382.356 307.584 
L 380.124 307.584 
z
" style="fill:#1f77b4;"/>
   </g>
   <g id="patch_120">
    <path clip-path="url(#p249c2e5294)" d="M 382.914 307.584 
L 385.146 307.584 
L 385.146 307.584 
L 382.914 307.584 
z
" style="fill:#1f77b4;"/>
   </g>
   <g id="patch_121">
    <path clip-path="url(#p249c2e5294)" d="M 385.704 307.584 
L 387.936 307.584 
L 387.936 307.584 
L 385.704 307.584 
z
" style="fill:#1f77b4;"/>
   </g>
   <g id="patch_122">
    <path clip-path="url(#p249c2e5294)" d="M 388.494 307.584 
L 390.726 307.584 
L 390.726 307.584 
L 388.494 307.584 
z
" style="fill:#1f77b4;"/>
   </g>
   <g id="patch_123">
    <path clip-path="url(#p249c2e5294)" d="M 391.284 307.584 
L 393.516 307.584 
L 393.516 307.584 
L 391.284 307.584 
z
" style="fill:#1f77b4;"/>
   </g>
   <g id="patch_124">
    <path clip-path="url(#p249c2e5294)" d="M 394.074 307.584 
L 396.306 307.584 
L 396.306 307.584 
L 394.074 307.584 
z
" style="fill:#1f77b4;"/>
   </g>
   <g id="patch_125">
    <path clip-path="url(#p249c2e5294)" d="M 396.864 307.584 
L 399.096 307.584 
L 399.096 307.584 
L 396.864 307.584 
z
" style="fill:#1f77b4;"/>
   </g>
   <g id="patch_126">
    <path clip-path="url(#p249c2e5294)" d="M 399.654 307.584 
L 401.886 307.584 
L 401.886 307.584 
L 399.654 307.584 
z
" style="fill:#1f77b4;"/>
   </g>
   <g id="patch_127">
    <path clip-path="url(#p249c2e5294)" d="M 402.444 307.584 
L 404.676 307.584 
L 404.676 307.584 
L 402.444 307.584 
z
" style="fill:#1f77b4;"/>
   </g>
   <g id="patch_128">
    <path clip-path="url(#p249c2e5294)" d="M 405.234 307.584 
L 407.466 307.584 
L 407.466 307.584 
L 405.234 307.584 
z
" style="fill:#1f77b4;"/>
   </g>
   <g id="patch_129">
    <path clip-path="url(#p249c2e5294)" d="M 408.024 307.584 
L 410.256 307.584 
L 410.256 307.584 
L 408.024 307.584 
z
" style="fill:#1f77b4;"/>
   </g>
   <g id="patch_130">
    <path clip-path="url(#p249c2e5294)" d="M 410.814 307.584 
L 413.046 307.584 
L 413.046 307.584 
L 410.814 307.584 
z
" style="fill:#1f77b4;"/>
   </g>
   <g id="patch_131">
    <path clip-path="url(#p249c2e5294)" d="M 413.604 307.584 
L 415.836 307.584 
L 415.836 307.584 
L 413.604 307.584 
z
" style="fill:#1f77b4;"/>
   </g>
   <g id="matplotlib.axis_1">
    <g id="xtick_1">
     <g id="line2d_1">
      <defs>
       <path d="M 0 0 
L 0 3.5 
" id="mb63649f682" style="stroke:#000000;stroke-width:0.8;"/>
      </defs>
      <g>
       <use style="stroke:#000000;stroke-width:0.8;" x="57.6" xlink:href="#mb63649f682" y="307.584"/>
      </g>
     </g>
     <g id="text_1">
      <!-- 0 -->
      <defs>
       <path d="M 31.78125 66.40625 
Q 24.171875 66.40625 20.328125 58.90625 
Q 16.5 51.421875 16.5 36.375 
Q 16.5 21.390625 20.328125 13.890625 
Q 24.171875 6.390625 31.78125 6.390625 
Q 39.453125 6.390625 43.28125 13.890625 
Q 47.125 21.390625 47.125 36.375 
Q 47.125 51.421875 43.28125 58.90625 
Q 39.453125 66.40625 31.78125 66.40625 
z
M 31.78125 74.21875 
Q 44.046875 74.21875 50.515625 64.515625 
Q 56.984375 54.828125 56.984375 36.375 
Q 56.984375 17.96875 50.515625 8.265625 
Q 44.046875 -1.421875 31.78125 -1.421875 
Q 19.53125 -1.421875 13.0625 8.265625 
Q 6.59375 17.96875 6.59375 36.375 
Q 6.59375 54.828125 13.0625 64.515625 
Q 19.53125 74.21875 31.78125 74.21875 
z
" id="DejaVuSans-30"/>
      </defs>
      <g transform="translate(54.41875 322.182437)scale(0.1 -0.1)">
       <use xlink:href="#DejaVuSans-30"/>
      </g>
     </g>
    </g>
    <g id="xtick_2">
     <g id="line2d_2">
      <g>
       <use style="stroke:#000000;stroke-width:0.8;" x="113.4" xlink:href="#mb63649f682" y="307.584"/>
      </g>
     </g>
     <g id="text_2">
      <!-- 20 -->
      <defs>
       <path d="M 19.1875 8.296875 
L 53.609375 8.296875 
L 53.609375 0 
L 7.328125 0 
L 7.328125 8.296875 
Q 12.9375 14.109375 22.625 23.890625 
Q 32.328125 33.6875 34.8125 36.53125 
Q 39.546875 41.84375 41.421875 45.53125 
Q 43.3125 49.21875 43.3125 52.78125 
Q 43.3125 58.59375 39.234375 62.25 
Q 35.15625 65.921875 28.609375 65.921875 
Q 23.96875 65.921875 18.8125 64.3125 
Q 13.671875 62.703125 7.8125 59.421875 
L 7.8125 69.390625 
Q 13.765625 71.78125 18.9375 73 
Q 24.125 74.21875 28.421875 74.21875 
Q 39.75 74.21875 46.484375 68.546875 
Q 53.21875 62.890625 53.21875 53.421875 
Q 53.21875 48.921875 51.53125 44.890625 
Q 49.859375 40.875 45.40625 35.40625 
Q 44.1875 33.984375 37.640625 27.21875 
Q 31.109375 20.453125 19.1875 8.296875 
z
" id="DejaVuSans-32"/>
      </defs>
      <g transform="translate(107.0375 322.182437)scale(0.1 -0.1)">
       <use xlink:href="#DejaVuSans-32"/>
       <use x="63.623047" xlink:href="#DejaVuSans-30"/>
      </g>
     </g>
    </g>
    <g id="xtick_3">
     <g id="line2d_3">
      <g>
       <use style="stroke:#000000;stroke-width:0.8;" x="169.2" xlink:href="#mb63649f682" y="307.584"/>
      </g>
     </g>
     <g id="text_3">
      <!-- 40 -->
      <defs>
       <path d="M 37.796875 64.3125 
L 12.890625 25.390625 
L 37.796875 25.390625 
z
M 35.203125 72.90625 
L 47.609375 72.90625 
L 47.609375 25.390625 
L 58.015625 25.390625 
L 58.015625 17.1875 
L 47.609375 17.1875 
L 47.609375 0 
L 37.796875 0 
L 37.796875 17.1875 
L 4.890625 17.1875 
L 4.890625 26.703125 
z
" id="DejaVuSans-34"/>
      </defs>
      <g transform="translate(162.8375 322.182437)scale(0.1 -0.1)">
       <use xlink:href="#DejaVuSans-34"/>
       <use x="63.623047" xlink:href="#DejaVuSans-30"/>
      </g>
     </g>
    </g>
    <g id="xtick_4">
     <g id="line2d_4">
      <g>
       <use style="stroke:#000000;stroke-width:0.8;" x="225" xlink:href="#mb63649f682" y="307.584"/>
      </g>
     </g>
     <g id="text_4">
      <!-- 60 -->
      <defs>
       <path d="M 33.015625 40.375 
Q 26.375 40.375 22.484375 35.828125 
Q 18.609375 31.296875 18.609375 23.390625 
Q 18.609375 15.53125 22.484375 10.953125 
Q 26.375 6.390625 33.015625 6.390625 
Q 39.65625 6.390625 43.53125 10.953125 
Q 47.40625 15.53125 47.40625 23.390625 
Q 47.40625 31.296875 43.53125 35.828125 
Q 39.65625 40.375 33.015625 40.375 
z
M 52.59375 71.296875 
L 52.59375 62.3125 
Q 48.875 64.0625 45.09375 64.984375 
Q 41.3125 65.921875 37.59375 65.921875 
Q 27.828125 65.921875 22.671875 59.328125 
Q 17.53125 52.734375 16.796875 39.40625 
Q 19.671875 43.65625 24.015625 45.921875 
Q 28.375 48.1875 33.59375 48.1875 
Q 44.578125 48.1875 50.953125 41.515625 
Q 57.328125 34.859375 57.328125 23.390625 
Q 57.328125 12.15625 50.6875 5.359375 
Q 44.046875 -1.421875 33.015625 -1.421875 
Q 20.359375 -1.421875 13.671875 8.265625 
Q 6.984375 17.96875 6.984375 36.375 
Q 6.984375 53.65625 15.1875 63.9375 
Q 23.390625 74.21875 37.203125 74.21875 
Q 40.921875 74.21875 44.703125 73.484375 
Q 48.484375 72.75 52.59375 71.296875 
z
" id="DejaVuSans-36"/>
      </defs>
      <g transform="translate(218.6375 322.182437)scale(0.1 -0.1)">
       <use xlink:href="#DejaVuSans-36"/>
       <use x="63.623047" xlink:href="#DejaVuSans-30"/>
      </g>
     </g>
    </g>
    <g id="xtick_5">
     <g id="line2d_5">
      <g>
       <use style="stroke:#000000;stroke-width:0.8;" x="280.8" xlink:href="#mb63649f682" y="307.584"/>
      </g>
     </g>
     <g id="text_5">
      <!-- 80 -->
      <defs>
       <path d="M 31.78125 34.625 
Q 24.75 34.625 20.71875 30.859375 
Q 16.703125 27.09375 16.703125 20.515625 
Q 16.703125 13.921875 20.71875 10.15625 
Q 24.75 6.390625 31.78125 6.390625 
Q 38.8125 6.390625 42.859375 10.171875 
Q 46.921875 13.96875 46.921875 20.515625 
Q 46.921875 27.09375 42.890625 30.859375 
Q 38.875 34.625 31.78125 34.625 
z
M 21.921875 38.8125 
Q 15.578125 40.375 12.03125 44.71875 
Q 8.5 49.078125 8.5 55.328125 
Q 8.5 64.0625 14.71875 69.140625 
Q 20.953125 74.21875 31.78125 74.21875 
Q 42.671875 74.21875 48.875 69.140625 
Q 55.078125 64.0625 55.078125 55.328125 
Q 55.078125 49.078125 51.53125 44.71875 
Q 48 40.375 41.703125 38.8125 
Q 48.828125 37.15625 52.796875 32.3125 
Q 56.78125 27.484375 56.78125 20.515625 
Q 56.78125 9.90625 50.3125 4.234375 
Q 43.84375 -1.421875 31.78125 -1.421875 
Q 19.734375 -1.421875 13.25 4.234375 
Q 6.78125 9.90625 6.78125 20.515625 
Q 6.78125 27.484375 10.78125 32.3125 
Q 14.796875 37.15625 21.921875 38.8125 
z
M 18.3125 54.390625 
Q 18.3125 48.734375 21.84375 45.5625 
Q 25.390625 42.390625 31.78125 42.390625 
Q 38.140625 42.390625 41.71875 45.5625 
Q 45.3125 48.734375 45.3125 54.390625 
Q 45.3125 60.0625 41.71875 63.234375 
Q 38.140625 66.40625 31.78125 66.40625 
Q 25.390625 66.40625 21.84375 63.234375 
Q 18.3125 60.0625 18.3125 54.390625 
z
" id="DejaVuSans-38"/>
      </defs>
      <g transform="translate(274.4375 322.182437)scale(0.1 -0.1)">
       <use xlink:href="#DejaVuSans-38"/>
       <use x="63.623047" xlink:href="#DejaVuSans-30"/>
      </g>
     </g>
    </g>
    <g id="xtick_6">
     <g id="line2d_6">
      <g>
       <use style="stroke:#000000;stroke-width:0.8;" x="336.6" xlink:href="#mb63649f682" y="307.584"/>
      </g>
     </g>
     <g id="text_6">
      <!-- 100 -->
      <defs>
       <path d="M 12.40625 8.296875 
L 28.515625 8.296875 
L 28.515625 63.921875 
L 10.984375 60.40625 
L 10.984375 69.390625 
L 28.421875 72.90625 
L 38.28125 72.90625 
L 38.28125 8.296875 
L 54.390625 8.296875 
L 54.390625 0 
L 12.40625 0 
z
" id="DejaVuSans-31"/>
      </defs>
      <g transform="translate(327.05625 322.182437)scale(0.1 -0.1)">
       <use xlink:href="#DejaVuSans-31"/>
       <use x="63.623047" xlink:href="#DejaVuSans-30"/>
       <use x="127.246094" xlink:href="#DejaVuSans-30"/>
      </g>
     </g>
    </g>
    <g id="xtick_7">
     <g id="line2d_7">
      <g>
       <use style="stroke:#000000;stroke-width:0.8;" x="392.4" xlink:href="#mb63649f682" y="307.584"/>
      </g>
     </g>
     <g id="text_7">
      <!-- 120 -->
      <g transform="translate(382.85625 322.182437)scale(0.1 -0.1)">
       <use xlink:href="#DejaVuSans-31"/>
       <use x="63.623047" xlink:href="#DejaVuSans-32"/>
       <use x="127.246094" xlink:href="#DejaVuSans-30"/>
      </g>
     </g>
    </g>
    <g id="text_8">
     <!-- Hamming distance -->
     <defs>
      <path d="M 6.6875 72.90625 
L 16.609375 72.90625 
L 16.609375 43.015625 
L 43.609375 43.015625 
L 43.609375 72.90625 
L 53.515625 72.90625 
L 53.515625 0 
L 43.609375 0 
L 43.609375 34.71875 
L 16.609375 34.71875 
L 16.609375 0 
L 6.6875 0 
z
" id="DejaVuSansMono-48"/>
      <path d="M 34.28125 27.484375 
L 31.296875 27.484375 
Q 23.4375 27.484375 19.453125 24.71875 
Q 15.484375 21.96875 15.484375 16.5 
Q 15.484375 11.578125 18.453125 8.84375 
Q 21.4375 6.109375 26.703125 6.109375 
Q 34.125 6.109375 38.375 11.25 
Q 42.625 16.40625 42.671875 25.484375 
L 42.671875 27.484375 
z
M 51.703125 31.203125 
L 51.703125 0 
L 42.671875 0 
L 42.671875 8.109375 
Q 39.796875 3.21875 35.421875 0.890625 
Q 31.0625 -1.421875 24.8125 -1.421875 
Q 16.453125 -1.421875 11.46875 3.296875 
Q 6.5 8.015625 6.5 15.921875 
Q 6.5 25.046875 12.625 29.78125 
Q 18.75 34.515625 30.609375 34.515625 
L 42.671875 34.515625 
L 42.671875 35.9375 
Q 42.625 42.484375 39.34375 45.4375 
Q 36.078125 48.390625 28.90625 48.390625 
Q 24.3125 48.390625 19.625 47.0625 
Q 14.9375 45.75 10.5 43.21875 
L 10.5 52.203125 
Q 15.484375 54.109375 20.046875 55.046875 
Q 24.609375 56 28.90625 56 
Q 35.6875 56 40.5 54 
Q 45.3125 52 48.296875 48 
Q 50.140625 45.5625 50.921875 41.96875 
Q 51.703125 38.375 51.703125 31.203125 
z
" id="DejaVuSansMono-61"/>
      <path d="M 33.015625 49.125 
Q 34.671875 52.640625 37.234375 54.3125 
Q 39.796875 56 43.40625 56 
Q 50 56 52.703125 50.890625 
Q 55.421875 45.796875 55.421875 31.6875 
L 55.421875 0 
L 47.21875 0 
L 47.21875 31.296875 
Q 47.21875 42.875 45.921875 45.671875 
Q 44.625 48.484375 41.21875 48.484375 
Q 37.3125 48.484375 35.859375 45.484375 
Q 34.421875 42.484375 34.421875 31.296875 
L 34.421875 0 
L 26.21875 0 
L 26.21875 31.296875 
Q 26.21875 43.015625 24.828125 45.75 
Q 23.4375 48.484375 19.828125 48.484375 
Q 16.265625 48.484375 14.875 45.484375 
Q 13.484375 42.484375 13.484375 31.296875 
L 13.484375 0 
L 5.328125 0 
L 5.328125 54.6875 
L 13.484375 54.6875 
L 13.484375 50 
Q 15.09375 52.9375 17.5 54.46875 
Q 19.921875 56 23 56 
Q 26.703125 56 29.171875 54.296875 
Q 31.640625 52.59375 33.015625 49.125 
z
" id="DejaVuSansMono-6d"/>
      <path d="M 12.5 54.6875 
L 35.5 54.6875 
L 35.5 6.984375 
L 53.328125 6.984375 
L 53.328125 0 
L 8.6875 0 
L 8.6875 6.984375 
L 26.515625 6.984375 
L 26.515625 47.703125 
L 12.5 47.703125 
z
M 26.515625 75.984375 
L 35.5 75.984375 
L 35.5 64.59375 
L 26.515625 64.59375 
z
" id="DejaVuSansMono-69"/>
      <path d="M 51.3125 33.890625 
L 51.3125 0 
L 42.28125 0 
L 42.28125 33.890625 
Q 42.28125 41.265625 39.6875 44.71875 
Q 37.109375 48.1875 31.59375 48.1875 
Q 25.296875 48.1875 21.890625 43.71875 
Q 18.5 39.265625 18.5 30.90625 
L 18.5 0 
L 9.515625 0 
L 9.515625 54.6875 
L 18.5 54.6875 
L 18.5 46.484375 
Q 20.90625 51.171875 25 53.578125 
Q 29.109375 56 34.71875 56 
Q 43.0625 56 47.1875 50.5 
Q 51.3125 45.015625 51.3125 33.890625 
z
" id="DejaVuSansMono-6e"/>
      <path d="M 41.890625 27.78125 
Q 41.890625 37.890625 38.59375 43.140625 
Q 35.296875 48.390625 29 48.390625 
Q 22.40625 48.390625 18.9375 43.140625 
Q 15.484375 37.890625 15.484375 27.78125 
Q 15.484375 17.671875 18.96875 12.375 
Q 22.46875 7.078125 29.109375 7.078125 
Q 35.296875 7.078125 38.59375 12.390625 
Q 41.890625 17.71875 41.890625 27.78125 
z
M 50.875 3.515625 
Q 50.875 -8.796875 45.0625 -15.140625 
Q 39.265625 -21.484375 27.984375 -21.484375 
Q 24.265625 -21.484375 20.203125 -20.796875 
Q 16.15625 -20.125 12.109375 -18.796875 
L 12.109375 -9.90625 
Q 16.890625 -12.15625 20.796875 -13.234375 
Q 24.703125 -14.3125 27.984375 -14.3125 
Q 35.25 -14.3125 38.5625 -10.34375 
Q 41.890625 -6.390625 41.890625 2.203125 
L 41.890625 2.59375 
L 41.890625 8.6875 
Q 39.75 4.109375 36.03125 1.859375 
Q 32.328125 -0.390625 27 -0.390625 
Q 17.4375 -0.390625 11.71875 7.265625 
Q 6 14.9375 6 27.78125 
Q 6 40.671875 11.71875 48.328125 
Q 17.4375 56 27 56 
Q 32.28125 56 35.9375 53.90625 
Q 39.59375 51.8125 41.890625 47.40625 
L 41.890625 54.5 
L 50.875 54.5 
z
" id="DejaVuSansMono-67"/>
      <path id="DejaVuSansMono-20"/>
      <path d="M 41.890625 47.703125 
L 41.890625 75.984375 
L 50.875 75.984375 
L 50.875 0 
L 41.890625 0 
L 41.890625 6.890625 
Q 39.65625 2.828125 35.90625 0.703125 
Q 32.171875 -1.421875 27.296875 -1.421875 
Q 17.390625 -1.421875 11.6875 6.265625 
Q 6 13.96875 6 27.484375 
Q 6 40.828125 11.71875 48.40625 
Q 17.4375 56 27.296875 56 
Q 32.234375 56 35.984375 53.875 
Q 39.75 51.765625 41.890625 47.703125 
z
M 15.484375 27.296875 
Q 15.484375 16.84375 18.796875 11.515625 
Q 22.125 6.203125 28.609375 6.203125 
Q 35.109375 6.203125 38.5 11.5625 
Q 41.890625 16.9375 41.890625 27.296875 
Q 41.890625 37.703125 38.5 43.046875 
Q 35.109375 48.390625 28.609375 48.390625 
Q 22.125 48.390625 18.796875 43.0625 
Q 15.484375 37.75 15.484375 27.296875 
z
" id="DejaVuSansMono-64"/>
      <path d="M 47.515625 52.78125 
L 47.515625 44 
Q 43.65625 46.234375 39.75 47.359375 
Q 35.84375 48.484375 31.78125 48.484375 
Q 25.6875 48.484375 22.671875 46.5 
Q 19.671875 44.53125 19.671875 40.484375 
Q 19.671875 36.8125 21.921875 35 
Q 24.171875 33.203125 33.109375 31.5 
L 36.71875 30.8125 
Q 43.40625 29.546875 46.84375 25.734375 
Q 50.296875 21.921875 50.296875 15.828125 
Q 50.296875 7.71875 44.53125 3.140625 
Q 38.765625 -1.421875 28.515625 -1.421875 
Q 24.46875 -1.421875 20.015625 -0.5625 
Q 15.578125 0.296875 10.40625 2 
L 10.40625 11.28125 
Q 15.4375 8.6875 20.015625 7.390625 
Q 24.609375 6.109375 28.71875 6.109375 
Q 34.671875 6.109375 37.9375 8.515625 
Q 41.21875 10.9375 41.21875 15.28125 
Q 41.21875 21.53125 29.25 23.921875 
L 28.859375 24.03125 
L 25.484375 24.703125 
Q 17.71875 26.21875 14.15625 29.8125 
Q 10.59375 33.40625 10.59375 39.59375 
Q 10.59375 47.46875 15.90625 51.734375 
Q 21.234375 56 31.109375 56 
Q 35.5 56 39.546875 55.1875 
Q 43.609375 54.390625 47.515625 52.78125 
z
" id="DejaVuSansMono-73"/>
      <path d="M 29.984375 70.21875 
L 29.984375 54.6875 
L 50.390625 54.6875 
L 50.390625 47.703125 
L 29.984375 47.703125 
L 29.984375 18.015625 
Q 29.984375 11.96875 32.28125 9.5625 
Q 34.578125 7.171875 40.28125 7.171875 
L 50.390625 7.171875 
L 50.390625 0 
L 39.40625 0 
Q 29.296875 0 25.140625 4.046875 
Q 21 8.109375 21 18.015625 
L 21 47.703125 
L 6.390625 47.703125 
L 6.390625 54.6875 
L 21 54.6875 
L 21 70.21875 
z
" id="DejaVuSansMono-74"/>
      <path d="M 51.8125 2.78125 
Q 48.1875 0.6875 44.359375 -0.359375 
Q 40.53125 -1.421875 36.53125 -1.421875 
Q 23.828125 -1.421875 16.671875 6.1875 
Q 9.515625 13.8125 9.515625 27.296875 
Q 9.515625 40.765625 16.671875 48.375 
Q 23.828125 56 36.53125 56 
Q 40.484375 56 44.234375 54.96875 
Q 48 53.953125 51.8125 51.8125 
L 51.8125 42.390625 
Q 48.25 45.5625 44.65625 46.96875 
Q 41.0625 48.390625 36.53125 48.390625 
Q 28.078125 48.390625 23.53125 42.921875 
Q 19 37.453125 19 27.296875 
Q 19 17.1875 23.5625 11.6875 
Q 28.125 6.203125 36.53125 6.203125 
Q 41.21875 6.203125 44.921875 7.640625 
Q 48.640625 9.078125 51.8125 12.109375 
z
" id="DejaVuSansMono-63"/>
      <path d="M 54.296875 29.59375 
L 54.296875 25.203125 
L 15.375 25.203125 
L 15.375 24.90625 
Q 15.375 15.96875 20.03125 11.078125 
Q 24.703125 6.203125 33.203125 6.203125 
Q 37.5 6.203125 42.1875 7.5625 
Q 46.875 8.9375 52.203125 11.71875 
L 52.203125 2.78125 
Q 47.078125 0.6875 42.3125 -0.359375 
Q 37.546875 -1.421875 33.109375 -1.421875 
Q 20.359375 -1.421875 13.171875 6.21875 
Q 6 13.875 6 27.296875 
Q 6 40.375 13.03125 48.1875 
Q 20.0625 56 31.78125 56 
Q 42.234375 56 48.265625 48.921875 
Q 54.296875 41.84375 54.296875 29.59375 
z
M 45.3125 32.234375 
Q 45.125 40.140625 41.578125 44.265625 
Q 38.03125 48.390625 31.390625 48.390625 
Q 24.90625 48.390625 20.703125 44.09375 
Q 16.5 39.796875 15.71875 32.171875 
z
" id="DejaVuSansMono-65"/>
     </defs>
     <g transform="translate(187.9975 335.860562)scale(0.1 -0.1)">
      <use xlink:href="#DejaVuSansMono-48"/>
      <use x="60.205078" xlink:href="#DejaVuSansMono-61"/>
      <use x="120.410156" xlink:href="#DejaVuSansMono-6d"/>
      <use x="180.615234" xlink:href="#DejaVuSansMono-6d"/>
      <use x="240.820312" xlink:href="#DejaVuSansMono-69"/>
      <use x="301.025391" xlink:href="#DejaVuSansMono-6e"/>
      <use x="361.230469" xlink:href="#DejaVuSansMono-67"/>
      <use x="421.435547" xlink:href="#DejaVuSansMono-20"/>
      <use x="481.640625" xlink:href="#DejaVuSansMono-64"/>
      <use x="541.845703" xlink:href="#DejaVuSansMono-69"/>
      <use x="602.050781" xlink:href="#DejaVuSansMono-73"/>
      <use x="662.255859" xlink:href="#DejaVuSansMono-74"/>
      <use x="722.460938" xlink:href="#DejaVuSansMono-61"/>
      <use x="782.666016" xlink:href="#DejaVuSansMono-6e"/>
      <use x="842.871094" xlink:href="#DejaVuSansMono-63"/>
      <use x="903.076172" xlink:href="#DejaVuSansMono-65"/>
     </g>
    </g>
   </g>
   <g id="matplotlib.axis_2">
    <g id="ytick_1">
     <g id="line2d_8">
      <defs>
       <path d="M 0 0 
L -3.5 0 
" id="m2d22c7b01b" style="stroke:#000000;stroke-width:0.8;"/>
      </defs>
      <g>
       <use style="stroke:#000000;stroke-width:0.8;" x="57.6" xlink:href="#m2d22c7b01b" y="307.584"/>
      </g>
     </g>
     <g id="text_9">
      <!-- 0 -->
      <g transform="translate(44.2375 311.383219)scale(0.1 -0.1)">
       <use xlink:href="#DejaVuSans-30"/>
      </g>
     </g>
    </g>
    <g id="ytick_2">
     <g id="line2d_9">
      <g>
       <use style="stroke:#000000;stroke-width:0.8;" x="57.6" xlink:href="#m2d22c7b01b" y="270.624"/>
      </g>
     </g>
     <g id="text_10">
      <!-- 100000 -->
      <g transform="translate(12.425 274.423219)scale(0.1 -0.1)">
       <use xlink:href="#DejaVuSans-31"/>
       <use x="63.623047" xlink:href="#DejaVuSans-30"/>
       <use x="127.246094" xlink:href="#DejaVuSans-30"/>
       <use x="190.869141" xlink:href="#DejaVuSans-30"/>
       <use x="254.492188" xlink:href="#DejaVuSans-30"/>
       <use x="318.115234" xlink:href="#DejaVuSans-30"/>
      </g>
     </g>
    </g>
    <g id="ytick_3">
     <g id="line2d_10">
      <g>
       <use style="stroke:#000000;stroke-width:0.8;" x="57.6" xlink:href="#m2d22c7b01b" y="233.664"/>
      </g>
     </g>
     <g id="text_11">
      <!-- 200000 -->
      <g transform="translate(12.425 237.463219)scale(0.1 -0.1)">
       <use xlink:href="#DejaVuSans-32"/>
       <use x="63.623047" xlink:href="#DejaVuSans-30"/>
       <use x="127.246094" xlink:href="#DejaVuSans-30"/>
       <use x="190.869141" xlink:href="#DejaVuSans-30"/>
       <use x="254.492188" xlink:href="#DejaVuSans-30"/>
       <use x="318.115234" xlink:href="#DejaVuSans-30"/>
      </g>
     </g>
    </g>
    <g id="ytick_4">
     <g id="line2d_11">
      <g>
       <use style="stroke:#000000;stroke-width:0.8;" x="57.6" xlink:href="#m2d22c7b01b" y="196.704"/>
      </g>
     </g>
     <g id="text_12">
      <!-- 300000 -->
      <defs>
       <path d="M 40.578125 39.3125 
Q 47.65625 37.796875 51.625 33 
Q 55.609375 28.21875 55.609375 21.1875 
Q 55.609375 10.40625 48.1875 4.484375 
Q 40.765625 -1.421875 27.09375 -1.421875 
Q 22.515625 -1.421875 17.65625 -0.515625 
Q 12.796875 0.390625 7.625 2.203125 
L 7.625 11.71875 
Q 11.71875 9.328125 16.59375 8.109375 
Q 21.484375 6.890625 26.8125 6.890625 
Q 36.078125 6.890625 40.9375 10.546875 
Q 45.796875 14.203125 45.796875 21.1875 
Q 45.796875 27.640625 41.28125 31.265625 
Q 36.765625 34.90625 28.71875 34.90625 
L 20.21875 34.90625 
L 20.21875 43.015625 
L 29.109375 43.015625 
Q 36.375 43.015625 40.234375 45.921875 
Q 44.09375 48.828125 44.09375 54.296875 
Q 44.09375 59.90625 40.109375 62.90625 
Q 36.140625 65.921875 28.71875 65.921875 
Q 24.65625 65.921875 20.015625 65.03125 
Q 15.375 64.15625 9.8125 62.3125 
L 9.8125 71.09375 
Q 15.4375 72.65625 20.34375 73.4375 
Q 25.25 74.21875 29.59375 74.21875 
Q 40.828125 74.21875 47.359375 69.109375 
Q 53.90625 64.015625 53.90625 55.328125 
Q 53.90625 49.265625 50.4375 45.09375 
Q 46.96875 40.921875 40.578125 39.3125 
z
" id="DejaVuSans-33"/>
      </defs>
      <g transform="translate(12.425 200.503219)scale(0.1 -0.1)">
       <use xlink:href="#DejaVuSans-33"/>
       <use x="63.623047" xlink:href="#DejaVuSans-30"/>
       <use x="127.246094" xlink:href="#DejaVuSans-30"/>
       <use x="190.869141" xlink:href="#DejaVuSans-30"/>
       <use x="254.492188" xlink:href="#DejaVuSans-30"/>
       <use x="318.115234" xlink:href="#DejaVuSans-30"/>
      </g>
     </g>
    </g>
    <g id="ytick_5">
     <g id="line2d_12">
      <g>
       <use style="stroke:#000000;stroke-width:0.8;" x="57.6" xlink:href="#m2d22c7b01b" y="159.744"/>
      </g>
     </g>
     <g id="text_13">
      <!-- 400000 -->
      <g transform="translate(12.425 163.543219)scale(0.1 -0.1)">
       <use xlink:href="#DejaVuSans-34"/>
       <use x="63.623047" xlink:href="#DejaVuSans-30"/>
       <use x="127.246094" xlink:href="#DejaVuSans-30"/>
       <use x="190.869141" xlink:href="#DejaVuSans-30"/>
       <use x="254.492188" xlink:href="#DejaVuSans-30"/>
       <use x="318.115234" xlink:href="#DejaVuSans-30"/>
      </g>
     </g>
    </g>
    <g id="ytick_6">
     <g id="line2d_13">
      <g>
       <use style="stroke:#000000;stroke-width:0.8;" x="57.6" xlink:href="#m2d22c7b01b" y="122.784"/>
      </g>
     </g>
     <g id="text_14">
      <!-- 500000 -->
      <defs>
       <path d="M 10.796875 72.90625 
L 49.515625 72.90625 
L 49.515625 64.59375 
L 19.828125 64.59375 
L 19.828125 46.734375 
Q 21.96875 47.46875 24.109375 47.828125 
Q 26.265625 48.1875 28.421875 48.1875 
Q 40.625 48.1875 47.75 41.5 
Q 54.890625 34.8125 54.890625 23.390625 
Q 54.890625 11.625 47.5625 5.09375 
Q 40.234375 -1.421875 26.90625 -1.421875 
Q 22.3125 -1.421875 17.546875 -0.640625 
Q 12.796875 0.140625 7.71875 1.703125 
L 7.71875 11.625 
Q 12.109375 9.234375 16.796875 8.0625 
Q 21.484375 6.890625 26.703125 6.890625 
Q 35.15625 6.890625 40.078125 11.328125 
Q 45.015625 15.765625 45.015625 23.390625 
Q 45.015625 31 40.078125 35.4375 
Q 35.15625 39.890625 26.703125 39.890625 
Q 22.75 39.890625 18.8125 39.015625 
Q 14.890625 38.140625 10.796875 36.28125 
z
" id="DejaVuSans-35"/>
      </defs>
      <g transform="translate(12.425 126.583219)scale(0.1 -0.1)">
       <use xlink:href="#DejaVuSans-35"/>
       <use x="63.623047" xlink:href="#DejaVuSans-30"/>
       <use x="127.246094" xlink:href="#DejaVuSans-30"/>
       <use x="190.869141" xlink:href="#DejaVuSans-30"/>
       <use x="254.492188" xlink:href="#DejaVuSans-30"/>
       <use x="318.115234" xlink:href="#DejaVuSans-30"/>
      </g>
     </g>
    </g>
    <g id="ytick_7">
     <g id="line2d_14">
      <g>
       <use style="stroke:#000000;stroke-width:0.8;" x="57.6" xlink:href="#m2d22c7b01b" y="85.824"/>
      </g>
     </g>
     <g id="text_15">
      <!-- 600000 -->
      <g transform="translate(12.425 89.623219)scale(0.1 -0.1)">
       <use xlink:href="#DejaVuSans-36"/>
       <use x="63.623047" xlink:href="#DejaVuSans-30"/>
       <use x="127.246094" xlink:href="#DejaVuSans-30"/>
       <use x="190.869141" xlink:href="#DejaVuSans-30"/>
       <use x="254.492188" xlink:href="#DejaVuSans-30"/>
       <use x="318.115234" xlink:href="#DejaVuSans-30"/>
      </g>
     </g>
    </g>
    <g id="ytick_8">
     <g id="line2d_15">
      <g>
       <use style="stroke:#000000;stroke-width:0.8;" x="57.6" xlink:href="#m2d22c7b01b" y="48.864"/>
      </g>
     </g>
     <g id="text_16">
      <!-- 700000 -->
      <defs>
       <path d="M 8.203125 72.90625 
L 55.078125 72.90625 
L 55.078125 68.703125 
L 28.609375 0 
L 18.3125 0 
L 43.21875 64.59375 
L 8.203125 64.59375 
z
" id="DejaVuSans-37"/>
      </defs>
      <g transform="translate(12.425 52.663219)scale(0.1 -0.1)">
       <use xlink:href="#DejaVuSans-37"/>
       <use x="63.623047" xlink:href="#DejaVuSans-30"/>
       <use x="127.246094" xlink:href="#DejaVuSans-30"/>
       <use x="190.869141" xlink:href="#DejaVuSans-30"/>
       <use x="254.492188" xlink:href="#DejaVuSans-30"/>
       <use x="318.115234" xlink:href="#DejaVuSans-30"/>
      </g>
     </g>
    </g>
    <g id="text_17">
     <!-- Hashes found -->
     <defs>
      <path d="M 51.3125 33.890625 
L 51.3125 0 
L 42.28125 0 
L 42.28125 33.890625 
Q 42.28125 41.265625 39.6875 44.71875 
Q 37.109375 48.1875 31.59375 48.1875 
Q 25.296875 48.1875 21.890625 43.71875 
Q 18.5 39.265625 18.5 30.90625 
L 18.5 0 
L 9.515625 0 
L 9.515625 75.984375 
L 18.5 75.984375 
L 18.5 46.484375 
Q 20.90625 51.171875 25 53.578125 
Q 29.109375 56 34.71875 56 
Q 43.0625 56 47.1875 50.5 
Q 51.3125 45.015625 51.3125 33.890625 
z
" id="DejaVuSansMono-68"/>
      <path d="M 51.90625 75.984375 
L 51.90625 68.5 
L 41.703125 68.5 
Q 36.859375 68.5 34.984375 66.515625 
Q 33.109375 64.546875 33.109375 59.515625 
L 33.109375 54.6875 
L 51.90625 54.6875 
L 51.90625 47.703125 
L 33.109375 47.703125 
L 33.109375 0 
L 24.125 0 
L 24.125 47.703125 
L 9.515625 47.703125 
L 9.515625 54.6875 
L 24.125 54.6875 
L 24.125 58.5 
Q 24.125 67.484375 28.25 71.734375 
Q 32.375 75.984375 41.109375 75.984375 
z
" id="DejaVuSansMono-66"/>
      <path d="M 30.078125 48.390625 
Q 23.25 48.390625 19.734375 43.0625 
Q 16.21875 37.75 16.21875 27.296875 
Q 16.21875 16.890625 19.734375 11.546875 
Q 23.25 6.203125 30.078125 6.203125 
Q 36.96875 6.203125 40.484375 11.546875 
Q 44 16.890625 44 27.296875 
Q 44 37.75 40.484375 43.0625 
Q 36.96875 48.390625 30.078125 48.390625 
z
M 30.078125 56 
Q 41.453125 56 47.484375 48.625 
Q 53.515625 41.265625 53.515625 27.296875 
Q 53.515625 13.28125 47.5 5.921875 
Q 41.5 -1.421875 30.078125 -1.421875 
Q 18.703125 -1.421875 12.6875 5.921875 
Q 6.6875 13.28125 6.6875 27.296875 
Q 6.6875 41.265625 12.6875 48.625 
Q 18.703125 56 30.078125 56 
z
" id="DejaVuSansMono-6f"/>
      <path d="M 9.515625 20.703125 
L 9.515625 54.59375 
L 18.5 54.59375 
L 18.5 20.703125 
Q 18.5 13.328125 21.109375 9.859375 
Q 23.734375 6.390625 29.203125 6.390625 
Q 35.546875 6.390625 38.90625 10.859375 
Q 42.28125 15.328125 42.28125 23.6875 
L 42.28125 54.59375 
L 51.3125 54.59375 
L 51.3125 0 
L 42.28125 0 
L 42.28125 8.203125 
Q 39.890625 3.46875 35.765625 1.015625 
Q 31.640625 -1.421875 26.125 -1.421875 
Q 17.71875 -1.421875 13.609375 4.078125 
Q 9.515625 9.578125 9.515625 20.703125 
z
" id="DejaVuSansMono-75"/>
     </defs>
     <g transform="translate(6.345312 210.649875)rotate(-90)scale(0.1 -0.1)">
      <use xlink:href="#DejaVuSansMono-48"/>
      <use x="60.205078" xlink:href="#DejaVuSansMono-61"/>
      <use x="120.410156" xlink:href="#DejaVuSansMono-73"/>
      <use x="180.615234" xlink:href="#DejaVuSansMono-68"/>
      <use x="240.820312" xlink:href="#DejaVuSansMono-65"/>
      <use x="301.025391" xlink:href="#DejaVuSansMono-73"/>
      <use x="361.230469" xlink:href="#DejaVuSansMono-20"/>
      <use x="421.435547" xlink:href="#DejaVuSansMono-66"/>
      <use x="481.640625" xlink:href="#DejaVuSansMono-6f"/>
      <use x="541.845703" xlink:href="#DejaVuSansMono-75"/>
      <use x="602.050781" xlink:href="#DejaVuSansMono-6e"/>
      <use x="662.255859" xlink:href="#DejaVuSansMono-64"/>
     </g>
    </g>
   </g>
   <g id="line2d_16">
    <path clip-path="url(#p249c2e5294)" d="M 57.6 307.584 
L 174.78 307.473257 
L 180.36 307.15613 
L 183.15 306.785309 
L 185.94 306.142884 
L 188.73 305.069713 
L 191.52 303.341141 
L 194.31 300.656883 
L 197.1 296.639155 
L 199.89 290.844826 
L 202.68 282.797146 
L 205.47 272.040586 
L 208.26 258.218148 
L 211.05 241.16449 
L 213.84 221.001424 
L 216.63 198.216536 
L 225 124.916045 
L 227.79 103.954149 
L 230.58 87.532387 
L 233.37 77.053738 
L 236.16 73.451703 
L 238.95 77.053738 
L 241.74 87.532387 
L 244.53 103.954149 
L 247.32 124.916045 
L 250.11 148.7423 
L 255.69 198.216536 
L 258.48 221.001424 
L 261.27 241.16449 
L 264.06 258.218148 
L 266.85 272.040586 
L 269.64 282.797146 
L 272.43 290.844826 
L 275.22 296.639155 
L 278.01 300.656883 
L 280.8 303.341141 
L 283.59 305.069713 
L 286.38 306.142884 
L 289.17 306.785309 
L 291.96 307.15613 
L 297.54 307.473257 
L 305.91 307.572805 
L 358.92 307.584 
L 414.72 307.584 
L 414.72 307.584 
" style="fill:none;stroke:#ff3300;stroke-linecap:square;"/>
   </g>
   <g id="patch_132">
    <path d="M 57.6 307.584 
L 57.6 41.472 
" style="fill:none;stroke:#000000;stroke-linecap:square;stroke-linejoin:miter;stroke-width:0.8;"/>
   </g>
   <g id="patch_133">
    <path d="M 414.72 307.584 
L 414.72 41.472 
" style="fill:none;stroke:#000000;stroke-linecap:square;stroke-linejoin:miter;stroke-width:0.8;"/>
   </g>
   <g id="patch_134">
    <path d="M 57.6 307.584 
L 414.72 307.584 
" style="fill:none;stroke:#000000;stroke-linecap:square;stroke-linejoin:miter;stroke-width:0.8;"/>
   </g>
   <g id="patch_135">
    <path d="M 57.6 41.472 
L 414.72 41.472 
" style="fill:none;stroke:#000000;stroke-linecap:square;stroke-linejoin:miter;stroke-width:0.8;"/>
   </g>
  </g>
  <g id="text_18">
   <!-- Genetic algorithm search results -->
   <defs>
    <path d="M 53.90625 6 
Q 49.953125 2.34375 45 0.453125 
Q 40.046875 -1.421875 34.28125 -1.421875 
Q 20.40625 -1.421875 12.6875 8.515625 
Q 4.984375 18.453125 4.984375 36.375 
Q 4.984375 54.25 12.796875 64.234375 
Q 20.609375 74.21875 34.515625 74.21875 
Q 39.109375 74.21875 43.3125 72.921875 
Q 47.515625 71.625 51.421875 69 
L 51.421875 58.890625 
Q 47.46875 62.640625 43.3125 64.421875 
Q 39.15625 66.21875 34.515625 66.21875 
Q 24.90625 66.21875 20.09375 58.765625 
Q 15.28125 51.3125 15.28125 36.375 
Q 15.28125 21.1875 19.9375 13.890625 
Q 24.609375 6.59375 34.28125 6.59375 
Q 37.546875 6.59375 40.015625 7.34375 
Q 42.484375 8.109375 44.484375 9.71875 
L 44.484375 29.296875 
L 33.890625 29.296875 
L 33.890625 37.40625 
L 53.90625 37.40625 
z
" id="DejaVuSansMono-47"/>
    <path d="M 31.203125 19.828125 
Q 31.203125 13.765625 33.421875 10.6875 
Q 35.640625 7.625 39.984375 7.625 
L 50.484375 7.625 
L 50.484375 0 
L 39.109375 0 
Q 31.0625 0 26.640625 5.171875 
Q 22.21875 10.359375 22.21875 19.828125 
L 22.21875 69.484375 
L 7.8125 69.484375 
L 7.8125 76.515625 
L 31.203125 76.515625 
z
" id="DejaVuSansMono-6c"/>
    <path d="M 56.390625 43.40625 
Q 53.515625 45.65625 50.53125 46.671875 
Q 47.5625 47.703125 44 47.703125 
Q 35.59375 47.703125 31.140625 42.421875 
Q 26.703125 37.15625 26.703125 27.203125 
L 26.703125 0 
L 17.671875 0 
L 17.671875 54.6875 
L 26.703125 54.6875 
L 26.703125 44 
Q 28.953125 49.8125 33.609375 52.90625 
Q 38.28125 56 44.671875 56 
Q 48 56 50.875 55.171875 
Q 53.765625 54.34375 56.390625 52.59375 
z
" id="DejaVuSansMono-72"/>
   </defs>
   <g transform="translate(114.81 16.093875)scale(0.12 -0.12)">
    <use xlink:href="#DejaVuSansMono-47"/>
    <use x="60.205078" xlink:href="#DejaVuSansMono-65"/>
    <use x="120.410156" xlink:href="#DejaVuSansMono-6e"/>
    <use x="180.615234" xlink:href="#DejaVuSansMono-65"/>
    <use x="240.820312" xlink:href="#DejaVuSansMono-74"/>
    <use x="301.025391" xlink:href="#DejaVuSansMono-69"/>
    <use x="361.230469" xlink:href="#DejaVuSansMono-63"/>
    <use x="421.435547" xlink:href="#DejaVuSansMono-20"/>
    <use x="481.640625" xlink:href="#DejaVuSansMono-61"/>
    <use x="541.845703" xlink:href="#DejaVuSansMono-6c"/>
    <use x="602.050781" xlink:href="#DejaVuSansMono-67"/>
    <use x="662.255859" xlink:href="#DejaVuSansMono-6f"/>
    <use x="722.460938" xlink:href="#DejaVuSansMono-72"/>
    <use x="782.666016" xlink:href="#DejaVuSansMono-69"/>
    <use x="842.871094" xlink:href="#DejaVuSansMono-74"/>
    <use x="903.076172" xlink:href="#DejaVuSansMono-68"/>
    <use x="963.28125" xlink:href="#DejaVuSansMono-6d"/>
    <use x="1023.486328" xlink:href="#DejaVuSansMono-20"/>
    <use x="1083.691406" xlink:href="#DejaVuSansMono-73"/>
    <use x="1143.896484" xlink:href="#DejaVuSansMono-65"/>
    <use x="1204.101562" xlink:href="#DejaVuSansMono-61"/>
    <use x="1264.306641" xlink:href="#DejaVuSansMono-72"/>
    <use x="1324.511719" xlink:href="#DejaVuSansMono-63"/>
    <use x="1384.716797" xlink:href="#DejaVuSansMono-68"/>
    <use x="1444.921875" xlink:href="#DejaVuSansMono-20"/>
    <use x="1505.126953" xlink:href="#DejaVuSansMono-72"/>
    <use x="1565.332031" xlink:href="#DejaVuSansMono-65"/>
    <use x="1625.537109" xlink:href="#DejaVuSansMono-73"/>
    <use x="1685.742188" xlink:href="#DejaVuSansMono-75"/>
    <use x="1745.947266" xlink:href="#DejaVuSansMono-6c"/>
    <use x="1806.152344" xlink:href="#DejaVuSansMono-74"/>
    <use x="1866.357422" xlink:href="#DejaVuSansMono-73"/>
   </g>
  </g>
 </g>
 <defs>
  <clipPath id="p249c2e5294">
   <rect height="266.112" width="357.12" x="57.6" y="41.472"/>
  </clipPath>
 </defs>
</svg>
